# xmcd CD database file
#
# Track frame offsets:
#	150
#	15150
#	34810
#	57717
#	72382
#	90120
#	101065
#	124210
#	140167
#	158775
#	179452
#
# Disc length: 2595 seconds
#
# Revision: 3
# Processed by: cddbd v1.5.1PL0 Copyright (c) Steve Scherf et al.
# Submitted via: CDex 1.51
#
DISCID=950a210b
DTITLE=coba(小林靖宏) - 走れパオリーノ
DYEAR=2001
DGENRE=
TTITLE0=volare-ecstasy-
TTITLE1=夢 駈ける
TTITLE2=告白
TTITLE3=telephone king
TTITLE4=canzone stregata
TTITLE5=トリュフ香の南瓜
TTITLE6=baiser
TTITLE7=妄想家のトゥルース
TTITLE8=哀愁のスカパラダイス
TTITLE9=apocalypse
TTITLE10=volare
EXTD=YEAR: 2001
EXTT0=
EXTT1=
EXTT2=
EXTT3=
EXTT4=
EXTT5=
EXTT6=
EXTT7=
EXTT8=
EXTT9=
EXTT10=
PLAYORDER=
